<svg width="542" height="351" viewBox="0 0 542 351" fill="none" xmlns="http://www.w3.org/2000/svg">
<g filter="url(#filter0_b_2_17)">
<rect x="0.00488281" y="78.0007" width="470" height="273" rx="20" fill="white"/>
</g>
<path d="M87.0632 175.201H61.1632V165.401L77.9632 136.001H91.9632L75.1632 165.401H87.0632V154.901H99.6632V165.401H104.563V175.201H99.6632V185.001H87.0632V175.201Z" fill="#4A40EE"/>
<path d="M66.2505 221.601C66.1705 222.774 66.0572 223.787 65.9105 224.641C65.7772 225.481 65.5772 226.267 65.3105 227.001C65.0439 227.721 64.6839 228.267 64.2305 228.641C63.7772 229.014 63.2305 229.201 62.5905 229.201C62.0972 229.201 61.5905 229.107 61.0705 228.921V226.721C61.2705 226.801 61.4639 226.841 61.6505 226.841C62.3439 226.841 62.8305 226.221 63.1105 224.981C63.3905 223.741 63.5839 221.881 63.6905 219.401H71.4905V229.001H68.7105V221.601H66.2505ZM78.466 225.881L80.846 219.401H83.726L79.466 230.161C78.5193 232.494 77.1393 233.661 75.326 233.661C74.9393 233.661 74.4393 233.587 73.826 233.441V231.141C74.266 231.234 74.646 231.281 74.966 231.281C75.9793 231.281 76.7393 230.581 77.246 229.181L77.266 229.141L72.726 219.401H75.666L78.466 225.881ZM93.5555 229.001H90.7955V226.001C90.0755 226.267 89.2555 226.401 88.3355 226.401C87.2422 226.401 86.3422 226.101 85.6355 225.501C84.9422 224.901 84.5955 224.007 84.5955 222.821V219.401H87.3755V222.561C87.3755 223.561 87.9489 224.061 89.0955 224.061C89.7622 224.061 90.3289 223.961 90.7955 223.761V219.401H93.5555V229.001ZM109.836 229.001H95.9163V219.401H98.6963V226.661H101.496V219.401H104.256V226.661H107.076V219.401H109.836V229.001ZM114.625 229.001H112.205V219.401H114.985V224.801L119.265 219.401H121.665V229.001H118.905V223.601L114.625 229.001ZM130.082 219.401H133.222L129.762 224.161L133.422 229.001H130.282L128.162 226.061L126.022 229.001H122.882L126.542 224.161L123.062 219.401H126.202L128.162 222.281L130.082 219.401ZM147.688 224.341C147.688 225.181 147.541 225.927 147.248 226.581C146.954 227.221 146.561 227.734 146.068 228.121C145.574 228.494 145.041 228.774 144.468 228.961C143.894 229.147 143.294 229.241 142.668 229.241C141.428 229.241 140.288 228.961 139.248 228.401V226.901C140.181 227.474 141.214 227.761 142.348 227.761C144.681 227.761 145.914 226.821 146.048 224.941H141.088V223.461H146.048C145.941 222.487 145.528 221.774 144.808 221.321C144.088 220.867 143.214 220.641 142.188 220.641C141.148 220.641 140.201 220.927 139.348 221.501V220.021C140.254 219.447 141.261 219.161 142.368 219.161C143.808 219.161 145.054 219.601 146.108 220.481C147.161 221.361 147.688 222.647 147.688 224.341ZM151.586 229.001H149.986V219.401H151.586V223.401H153.526L156.566 219.401H158.426L154.786 224.181L158.866 229.001H156.986L153.466 224.881H151.586V229.001ZM159.306 224.241C159.306 223.401 159.46 222.647 159.766 221.981C160.073 221.314 160.473 220.781 160.966 220.381C161.473 219.981 162.026 219.681 162.626 219.481C163.24 219.267 163.866 219.161 164.506 219.161C165.693 219.161 166.68 219.421 167.466 219.941V221.501C166.733 220.927 165.813 220.641 164.706 220.641C163.666 220.641 162.773 220.941 162.026 221.541C161.28 222.141 160.906 223.027 160.906 224.201C160.906 225.361 161.273 226.247 162.006 226.861C162.753 227.461 163.64 227.761 164.666 227.761C165.733 227.761 166.7 227.501 167.566 226.981V228.581C166.66 229.021 165.62 229.241 164.446 229.241C163.06 229.241 161.853 228.807 160.826 227.941C159.813 227.074 159.306 225.841 159.306 224.241ZM171.508 229.001H169.908V219.401H178.668V229.001H177.068V220.881H171.508V229.001ZM180.966 224.201C180.966 222.627 181.446 221.394 182.406 220.501C183.38 219.607 184.493 219.161 185.746 219.161C186.92 219.161 187.886 219.454 188.646 220.041C189.42 220.627 189.926 221.354 190.166 222.221C190.406 223.074 190.42 223.967 190.206 224.901H182.566C182.66 225.847 183.08 226.561 183.826 227.041C184.573 227.521 185.473 227.761 186.526 227.761C187.7 227.761 188.753 227.501 189.686 226.981V228.541C188.793 229.007 187.66 229.241 186.286 229.241C184.766 229.241 183.5 228.807 182.486 227.941C181.473 227.074 180.966 225.827 180.966 224.201ZM188.786 223.501C188.826 223.221 188.806 222.927 188.726 222.621C188.646 222.314 188.5 222.007 188.286 221.701C188.086 221.394 187.773 221.141 187.346 220.941C186.92 220.741 186.42 220.641 185.846 220.641C184.98 220.641 184.226 220.894 183.586 221.401C182.96 221.907 182.62 222.607 182.566 223.501H188.786ZM193.984 221.001C195.064 219.774 196.358 219.161 197.864 219.161C199.238 219.161 200.378 219.641 201.284 220.601C202.204 221.561 202.664 222.761 202.664 224.201C202.664 225.641 202.204 226.841 201.284 227.801C200.378 228.761 199.238 229.241 197.864 229.241C196.344 229.241 195.104 228.681 194.144 227.561V233.401H192.544V219.401H193.984V221.001ZM200.084 226.781C200.738 226.127 201.064 225.267 201.064 224.201C201.064 223.134 200.738 222.274 200.084 221.621C199.444 220.967 198.644 220.641 197.684 220.641C196.871 220.641 196.151 220.867 195.524 221.321C194.898 221.774 194.438 222.334 194.144 223.001V225.401C194.438 226.067 194.898 226.627 195.524 227.081C196.151 227.534 196.871 227.761 197.684 227.761C198.644 227.761 199.444 227.434 200.084 226.781ZM208.673 229.001H207.073V220.881H203.533V219.401H212.193V220.881H208.673V229.001ZM221.712 227.001C221.712 227.494 221.958 227.741 222.452 227.741C222.665 227.741 222.912 227.694 223.192 227.601V228.901C222.792 229.047 222.392 229.121 221.992 229.121C221.072 229.121 220.485 228.734 220.232 227.961C219.205 228.814 217.958 229.241 216.492 229.241C215.558 229.241 214.758 228.994 214.092 228.501C213.438 227.994 213.112 227.267 213.112 226.321C213.112 225.187 213.532 224.367 214.372 223.861C215.225 223.341 216.252 223.081 217.452 223.081C218.332 223.081 219.218 223.181 220.112 223.381V223.041C220.112 222.307 219.872 221.727 219.392 221.301C218.912 220.861 218.238 220.641 217.372 220.641C216.158 220.641 214.992 220.881 213.872 221.361V219.801C215.125 219.374 216.345 219.161 217.532 219.161C218.838 219.161 219.858 219.514 220.592 220.221C221.338 220.914 221.712 221.921 221.712 223.241V227.001ZM214.752 226.241C214.752 226.774 214.952 227.181 215.352 227.461C215.765 227.727 216.258 227.861 216.832 227.861C218.152 227.861 219.245 227.394 220.112 226.461V224.701C219.205 224.514 218.392 224.421 217.672 224.421C216.858 224.421 216.165 224.567 215.592 224.861C215.032 225.141 214.752 225.601 214.752 226.241ZM229.228 224.241C229.228 223.401 229.382 222.647 229.688 221.981C229.995 221.314 230.395 220.781 230.888 220.381C231.395 219.981 231.948 219.681 232.548 219.481C233.162 219.267 233.788 219.161 234.428 219.161C235.615 219.161 236.602 219.421 237.388 219.941V221.501C236.655 220.927 235.735 220.641 234.628 220.641C233.588 220.641 232.695 220.941 231.948 221.541C231.202 222.141 230.828 223.027 230.828 224.201C230.828 225.361 231.195 226.247 231.928 226.861C232.675 227.461 233.562 227.761 234.588 227.761C235.655 227.761 236.622 227.501 237.488 226.981V228.581C236.582 229.021 235.542 229.241 234.368 229.241C232.982 229.241 231.775 228.807 230.748 227.941C229.735 227.074 229.228 225.841 229.228 224.241ZM240.514 227.901C239.5 226.994 238.994 225.761 238.994 224.201C238.994 222.641 239.5 221.414 240.514 220.521C241.527 219.614 242.727 219.161 244.114 219.161C245.514 219.161 246.714 219.614 247.714 220.521C248.727 221.414 249.234 222.641 249.234 224.201C249.234 225.761 248.727 226.994 247.714 227.901C246.714 228.794 245.514 229.241 244.114 229.241C242.727 229.241 241.527 228.794 240.514 227.901ZM246.634 226.781C247.3 226.141 247.634 225.281 247.634 224.201C247.634 223.121 247.3 222.267 246.634 221.641C245.967 221.001 245.127 220.681 244.114 220.681C243.1 220.681 242.26 221.001 241.594 221.641C240.927 222.267 240.594 223.121 240.594 224.201C240.594 225.281 240.927 226.141 241.594 226.781C242.26 227.407 243.1 227.721 244.114 227.721C245.127 227.721 245.967 227.407 246.634 226.781ZM260.909 224.481C260.909 225.961 260.455 227.127 259.549 227.981C258.655 228.821 257.475 229.241 256.009 229.241C254.515 229.241 253.309 228.747 252.389 227.761C251.482 226.774 251.029 225.394 251.029 223.621C251.029 222.074 251.295 220.741 251.829 219.621C252.362 218.501 253.082 217.661 253.989 217.101C254.602 216.727 255.235 216.434 255.889 216.221C256.555 215.994 257.102 215.854 257.529 215.801C257.969 215.747 258.422 215.641 258.889 215.481C259.355 215.307 259.742 215.067 260.049 214.761V216.441C259.675 216.707 259.215 216.907 258.669 217.041C258.122 217.161 257.515 217.307 256.849 217.481C256.182 217.654 255.542 217.921 254.929 218.281C254.329 218.641 253.862 219.094 253.529 219.641C253.195 220.187 252.902 220.841 252.649 221.601C252.995 221.067 253.489 220.634 254.129 220.301C254.769 219.967 255.455 219.801 256.189 219.801C257.482 219.801 258.589 220.234 259.509 221.101C260.442 221.967 260.909 223.094 260.909 224.481ZM252.629 224.521C252.629 225.441 252.935 226.207 253.549 226.821C254.162 227.421 254.969 227.721 255.969 227.721C256.995 227.721 257.809 227.421 258.409 226.821C259.009 226.221 259.309 225.454 259.309 224.521C259.309 223.587 259.009 222.821 258.409 222.221C257.809 221.621 256.995 221.321 255.969 221.321C255.009 221.321 254.209 221.647 253.569 222.301C252.942 222.941 252.629 223.681 252.629 224.521ZM262.568 224.201C262.568 222.627 263.048 221.394 264.008 220.501C264.981 219.607 266.095 219.161 267.348 219.161C268.521 219.161 269.488 219.454 270.248 220.041C271.021 220.627 271.528 221.354 271.768 222.221C272.008 223.074 272.021 223.967 271.808 224.901H264.168C264.261 225.847 264.681 226.561 265.428 227.041C266.175 227.521 267.075 227.761 268.128 227.761C269.301 227.761 270.355 227.501 271.288 226.981V228.541C270.395 229.007 269.261 229.241 267.888 229.241C266.368 229.241 265.101 228.807 264.088 227.941C263.075 227.074 262.568 225.827 262.568 224.201ZM270.388 223.501C270.428 223.221 270.408 222.927 270.328 222.621C270.248 222.314 270.101 222.007 269.888 221.701C269.688 221.394 269.375 221.141 268.948 220.941C268.521 220.741 268.021 220.641 267.448 220.641C266.581 220.641 265.828 220.894 265.188 221.401C264.561 221.907 264.221 222.607 264.168 223.501H270.388ZM275.586 221.001C276.666 219.774 277.959 219.161 279.466 219.161C280.839 219.161 281.979 219.641 282.886 220.601C283.806 221.561 284.266 222.761 284.266 224.201C284.266 225.641 283.806 226.841 282.886 227.801C281.979 228.761 280.839 229.241 279.466 229.241C277.946 229.241 276.706 228.681 275.746 227.561V233.401H274.146V219.401H275.586V221.001ZM281.686 226.781C282.339 226.127 282.666 225.267 282.666 224.201C282.666 223.134 282.339 222.274 281.686 221.621C281.046 220.967 280.246 220.641 279.286 220.641C278.473 220.641 277.753 220.867 277.126 221.321C276.499 221.774 276.039 222.334 275.746 223.001V225.401C276.039 226.067 276.499 226.627 277.126 227.081C277.753 227.534 278.473 227.761 279.286 227.761C280.246 227.761 281.046 227.434 281.686 226.781ZM290.276 227.181L293.516 219.401H295.216L290.496 230.441C289.576 232.574 288.369 233.641 286.876 233.641C286.516 233.641 286.169 233.594 285.836 233.501V232.121C286.116 232.201 286.396 232.241 286.676 232.241C287.703 232.241 288.529 231.461 289.156 229.901L289.516 229.021L284.956 219.401H286.656L290.276 227.181ZM300.998 229.001H299.398V220.881H295.858V219.401H304.518V220.881H300.998V229.001ZM305.361 224.241C305.361 223.401 305.514 222.647 305.821 221.981C306.128 221.314 306.528 220.781 307.021 220.381C307.528 219.981 308.081 219.681 308.681 219.481C309.294 219.267 309.921 219.161 310.561 219.161C311.748 219.161 312.734 219.421 313.521 219.941V221.501C312.788 220.927 311.868 220.641 310.761 220.641C309.721 220.641 308.828 220.941 308.081 221.541C307.334 222.141 306.961 223.027 306.961 224.201C306.961 225.361 307.328 226.247 308.061 226.861C308.808 227.461 309.694 227.761 310.721 227.761C311.788 227.761 312.754 227.501 313.621 226.981V228.581C312.714 229.021 311.674 229.241 310.501 229.241C309.114 229.241 307.908 228.807 306.881 227.941C305.868 227.074 305.361 225.841 305.361 224.241ZM316.922 229.001H315.042L317.822 225.481C317.089 225.267 316.522 224.894 316.122 224.361C315.722 223.827 315.522 223.214 315.522 222.521C315.522 221.641 315.842 220.901 316.482 220.301C317.122 219.701 318.002 219.401 319.122 219.401H323.842V229.001H322.242V225.641H319.542L316.922 229.001ZM317.682 221.281C317.309 221.574 317.122 221.987 317.122 222.521C317.122 223.054 317.309 223.467 317.682 223.761C318.069 224.054 318.596 224.201 319.262 224.201H322.242V220.841H319.262C318.596 220.841 318.069 220.987 317.682 221.281ZM337.203 229.001H331.783V219.401H337.043C337.909 219.401 338.616 219.627 339.163 220.081C339.723 220.534 340.003 221.174 340.003 222.001C340.003 222.481 339.883 222.914 339.643 223.301C339.403 223.687 339.096 223.961 338.723 224.121C339.163 224.267 339.536 224.534 339.843 224.921C340.149 225.307 340.303 225.781 340.303 226.341C340.303 227.154 340.036 227.801 339.503 228.281C338.983 228.761 338.216 229.001 337.203 229.001ZM333.383 224.841V227.601H336.983C338.129 227.601 338.703 227.147 338.703 226.241C338.703 225.307 338.149 224.841 337.043 224.841H333.383ZM333.383 220.801V223.461H336.883C337.883 223.461 338.383 223.027 338.383 222.161C338.383 221.667 338.236 221.321 337.943 221.121C337.649 220.907 337.296 220.801 336.883 220.801H333.383ZM355.5 224.341C355.5 225.181 355.354 225.927 355.06 226.581C354.767 227.221 354.374 227.734 353.88 228.121C353.387 228.494 352.854 228.774 352.28 228.961C351.707 229.147 351.107 229.241 350.48 229.241C349.24 229.241 348.1 228.961 347.06 228.401V226.901C347.994 227.474 349.027 227.761 350.16 227.761C352.494 227.761 353.727 226.821 353.86 224.941H348.9V223.461H353.86C353.754 222.487 353.34 221.774 352.62 221.321C351.9 220.867 351.027 220.641 350 220.641C348.96 220.641 348.014 220.927 347.16 221.501V220.021C348.067 219.447 349.074 219.161 350.18 219.161C351.62 219.161 352.867 219.601 353.92 220.481C354.974 221.361 355.5 222.647 355.5 224.341ZM361.486 229.001H359.886V220.881H356.346V219.401H365.006V220.881H361.486V229.001ZM367.369 227.901C366.356 226.994 365.849 225.761 365.849 224.201C365.849 222.641 366.356 221.414 367.369 220.521C368.383 219.614 369.583 219.161 370.969 219.161C372.369 219.161 373.569 219.614 374.569 220.521C375.583 221.414 376.089 222.641 376.089 224.201C376.089 225.761 375.583 226.994 374.569 227.901C373.569 228.794 372.369 229.241 370.969 229.241C369.583 229.241 368.383 228.794 367.369 227.901ZM373.489 226.781C374.156 226.141 374.489 225.281 374.489 224.201C374.489 223.121 374.156 222.267 373.489 221.641C372.823 221.001 371.983 220.681 370.969 220.681C369.956 220.681 369.116 221.001 368.449 221.641C367.783 222.267 367.449 223.121 367.449 224.201C367.449 225.281 367.783 226.141 368.449 226.781C369.116 227.407 369.956 227.721 370.969 227.721C371.983 227.721 372.823 227.407 373.489 226.781ZM382.072 229.001H380.472V220.881H376.932V219.401H385.592V220.881H382.072V229.001ZM62.8905 263.601H61.3305V259.561H62.6105C63.7439 257.561 64.2905 254.841 64.2505 251.401H71.4105V259.561H72.8105V263.601H71.2505V261.001H62.8905V263.601ZM65.7905 252.841C65.7239 255.467 65.2439 257.707 64.3505 259.561H69.8105V252.841H65.7905ZM74.0915 256.201C74.0915 254.627 74.5715 253.394 75.5315 252.501C76.5048 251.607 77.6182 251.161 78.8715 251.161C80.0448 251.161 81.0115 251.454 81.7715 252.041C82.5448 252.627 83.0515 253.354 83.2915 254.221C83.5315 255.074 83.5448 255.967 83.3315 256.901H75.6915C75.7848 257.847 76.2048 258.561 76.9515 259.041C77.6982 259.521 78.5982 259.761 79.6515 259.761C80.8248 259.761 81.8782 259.501 82.8115 258.981V260.541C81.9182 261.007 80.7848 261.241 79.4115 261.241C77.8915 261.241 76.6248 260.807 75.6115 259.941C74.5982 259.074 74.0915 257.827 74.0915 256.201ZM81.9115 255.501C81.9515 255.221 81.9315 254.927 81.8515 254.621C81.7715 254.314 81.6248 254.007 81.4115 253.701C81.2115 253.394 80.8982 253.141 80.4715 252.941C80.0448 252.741 79.5448 252.641 78.9715 252.641C78.1048 252.641 77.3515 252.894 76.7115 253.401C76.0848 253.907 75.7448 254.607 75.6915 255.501H81.9115ZM87.2695 261.001H85.6695V251.401H87.2695V255.461H92.8295V251.401H94.4295V261.001H92.8295V256.941H87.2695V261.001ZM101.948 261.001H97.3882V251.401H98.9882V254.761H101.948C103.095 254.761 104.002 255.054 104.668 255.641C105.335 256.227 105.668 256.974 105.668 257.881C105.668 258.787 105.335 259.534 104.668 260.121C104.002 260.707 103.095 261.001 101.948 261.001ZM98.9882 256.201V259.561H101.748C102.468 259.561 103.028 259.421 103.428 259.141C103.842 258.861 104.048 258.441 104.048 257.881C104.048 257.321 103.842 256.901 103.428 256.621C103.028 256.341 102.468 256.201 101.748 256.201H98.9882ZM107.96 264.001H106.66L107.76 259.401H109.46L107.96 264.001ZM124.673 261.001H123.073V257.661C122.207 257.994 121.253 258.161 120.213 258.161C119.067 258.161 118.16 257.874 117.493 257.301C116.84 256.727 116.513 255.867 116.513 254.721V251.401H118.113V254.601C118.113 255.374 118.327 255.914 118.753 256.221C119.193 256.527 119.84 256.681 120.693 256.681C121.587 256.681 122.38 256.541 123.073 256.261V251.401H124.673V261.001ZM131.642 261.001H130.042V252.881H126.502V251.401H135.162V252.881H131.642V261.001ZM137.526 259.901C136.512 258.994 136.006 257.761 136.006 256.201C136.006 254.641 136.512 253.414 137.526 252.521C138.539 251.614 139.739 251.161 141.126 251.161C142.526 251.161 143.726 251.614 144.726 252.521C145.739 253.414 146.246 254.641 146.246 256.201C146.246 257.761 145.739 258.994 144.726 259.901C143.726 260.794 142.526 261.241 141.126 261.241C139.739 261.241 138.539 260.794 137.526 259.901ZM143.646 258.781C144.312 258.141 144.646 257.281 144.646 256.201C144.646 255.121 144.312 254.267 143.646 253.641C142.979 253.001 142.139 252.681 141.126 252.681C140.112 252.681 139.272 253.001 138.606 253.641C137.939 254.267 137.606 255.121 137.606 256.201C137.606 257.281 137.939 258.141 138.606 258.781C139.272 259.407 140.112 259.721 141.126 259.721C142.139 259.721 142.979 259.407 143.646 258.781ZM157.921 256.481C157.921 257.961 157.467 259.127 156.561 259.981C155.667 260.821 154.487 261.241 153.021 261.241C151.527 261.241 150.321 260.747 149.401 259.761C148.494 258.774 148.041 257.394 148.041 255.621C148.041 254.074 148.307 252.741 148.841 251.621C149.374 250.501 150.094 249.661 151.001 249.101C151.614 248.727 152.247 248.434 152.901 248.221C153.567 247.994 154.114 247.854 154.541 247.801C154.981 247.747 155.434 247.641 155.901 247.481C156.367 247.307 156.754 247.067 157.061 246.761V248.441C156.687 248.707 156.227 248.907 155.681 249.041C155.134 249.161 154.527 249.307 153.861 249.481C153.194 249.654 152.554 249.921 151.941 250.281C151.341 250.641 150.874 251.094 150.541 251.641C150.207 252.187 149.914 252.841 149.661 253.601C150.007 253.067 150.501 252.634 151.141 252.301C151.781 251.967 152.467 251.801 153.201 251.801C154.494 251.801 155.601 252.234 156.521 253.101C157.454 253.967 157.921 255.094 157.921 256.481ZM149.641 256.521C149.641 257.441 149.947 258.207 150.561 258.821C151.174 259.421 151.981 259.721 152.981 259.721C154.007 259.721 154.821 259.421 155.421 258.821C156.021 258.221 156.321 257.454 156.321 256.521C156.321 255.587 156.021 254.821 155.421 254.221C154.821 253.621 154.007 253.321 152.981 253.321C152.021 253.321 151.221 253.647 150.581 254.301C149.954 254.941 149.641 255.681 149.641 256.521ZM164.8 261.001H160.24V251.401H161.84V254.761H164.8C165.946 254.761 166.853 255.054 167.52 255.641C168.186 256.227 168.52 256.974 168.52 257.881C168.52 258.787 168.186 259.534 167.52 260.121C166.853 260.707 165.946 261.001 164.8 261.001ZM161.84 256.201V259.561H164.6C165.32 259.561 165.88 259.421 166.28 259.141C166.693 258.861 166.9 258.441 166.9 257.881C166.9 257.321 166.693 256.901 166.28 256.621C165.88 256.341 165.32 256.201 164.6 256.201H161.84ZM171.98 261.001H170.38V251.401H171.98V261.001ZM181.527 261.001H179.927V251.401H188.687V261.001H187.087V252.881H181.527V261.001ZM192.506 259.901C191.493 258.994 190.986 257.761 190.986 256.201C190.986 254.641 191.493 253.414 192.506 252.521C193.519 251.614 194.719 251.161 196.106 251.161C197.506 251.161 198.706 251.614 199.706 252.521C200.719 253.414 201.226 254.641 201.226 256.201C201.226 257.761 200.719 258.994 199.706 259.901C198.706 260.794 197.506 261.241 196.106 261.241C194.719 261.241 193.519 260.794 192.506 259.901ZM198.626 258.781C199.293 258.141 199.626 257.281 199.626 256.201C199.626 255.121 199.293 254.267 198.626 253.641C197.959 253.001 197.119 252.681 196.106 252.681C195.093 252.681 194.253 253.001 193.586 253.641C192.919 254.267 192.586 255.121 192.586 256.201C192.586 257.281 192.919 258.141 193.586 258.781C194.253 259.407 195.093 259.721 196.106 259.721C197.119 259.721 197.959 259.407 198.626 258.781ZM203.867 263.601H202.307V259.561H203.587C204.72 257.561 205.267 254.841 205.227 251.401H212.387V259.561H213.787V263.601H212.227V261.001H203.867V263.601ZM206.767 252.841C206.7 255.467 206.22 257.707 205.327 259.561H210.787V252.841H206.767ZM215.068 256.201C215.068 254.627 215.548 253.394 216.508 252.501C217.481 251.607 218.595 251.161 219.848 251.161C221.021 251.161 221.988 251.454 222.748 252.041C223.521 252.627 224.028 253.354 224.268 254.221C224.508 255.074 224.521 255.967 224.308 256.901H216.668C216.761 257.847 217.181 258.561 217.928 259.041C218.675 259.521 219.575 259.761 220.628 259.761C221.801 259.761 222.855 259.501 223.788 258.981V260.541C222.895 261.007 221.761 261.241 220.388 261.241C218.868 261.241 217.601 260.807 216.588 259.941C215.575 259.074 215.068 257.827 215.068 256.201ZM222.888 255.501C222.928 255.221 222.908 254.927 222.828 254.621C222.748 254.314 222.601 254.007 222.388 253.701C222.188 253.394 221.875 253.141 221.448 252.941C221.021 252.741 220.521 252.641 219.948 252.641C219.081 252.641 218.328 252.894 217.688 253.401C217.061 253.907 216.721 254.607 216.668 255.501H222.888ZM230.046 252.881C229.979 253.934 229.899 254.854 229.806 255.641C229.713 256.427 229.579 257.187 229.406 257.921C229.233 258.641 229.019 259.227 228.766 259.681C228.526 260.134 228.219 260.494 227.846 260.761C227.473 261.027 227.046 261.161 226.566 261.161C226.179 261.161 225.793 261.087 225.406 260.941V259.681C225.619 259.761 225.833 259.801 226.046 259.801C226.846 259.801 227.426 259.101 227.786 257.701C228.159 256.287 228.393 254.187 228.486 251.401H235.546V261.001H233.946V252.881H230.046ZM239.861 261.001H238.501V251.401H240.101V258.421L245.981 251.401H247.341V261.001H245.741V253.981L239.861 261.001ZM254.298 261.001H252.698V252.881H249.158V251.401H257.818V252.881H254.298V261.001ZM264.194 261.001H259.634V251.401H261.234V254.761H264.194C265.341 254.761 266.248 255.054 266.914 255.641C267.581 256.227 267.914 256.974 267.914 257.881C267.914 258.787 267.581 259.534 266.914 260.121C266.248 260.707 265.341 261.001 264.194 261.001ZM261.234 256.201V259.561H263.994C264.714 259.561 265.274 259.421 265.674 259.141C266.088 258.861 266.294 258.441 266.294 257.881C266.294 257.321 266.088 256.901 265.674 256.621C265.274 256.341 264.714 256.201 263.994 256.201H261.234ZM269.306 256.241C269.306 255.401 269.46 254.647 269.766 253.981C270.073 253.314 270.473 252.781 270.966 252.381C271.473 251.981 272.026 251.681 272.626 251.481C273.24 251.267 273.866 251.161 274.506 251.161C275.693 251.161 276.68 251.421 277.466 251.941V253.501C276.733 252.927 275.813 252.641 274.706 252.641C273.666 252.641 272.773 252.941 272.026 253.541C271.28 254.141 270.906 255.027 270.906 256.201C270.906 257.361 271.273 258.247 272.006 258.861C272.753 259.461 273.64 259.761 274.666 259.761C275.733 259.761 276.7 259.501 277.566 258.981V260.581C276.66 261.021 275.62 261.241 274.446 261.241C273.06 261.241 271.853 260.807 270.826 259.941C269.813 259.074 269.306 257.841 269.306 256.241ZM280.868 261.001H278.988L281.768 257.481C281.034 257.267 280.468 256.894 280.068 256.361C279.668 255.827 279.468 255.214 279.468 254.521C279.468 253.641 279.788 252.901 280.428 252.301C281.068 251.701 281.948 251.401 283.068 251.401H287.788V261.001H286.188V257.641H283.488L280.868 261.001ZM281.628 253.281C281.254 253.574 281.068 253.987 281.068 254.521C281.068 255.054 281.254 255.467 281.628 255.761C282.014 256.054 282.541 256.201 283.208 256.201H286.188V252.841H283.208C282.541 252.841 282.014 252.987 281.628 253.281ZM302.908 258.421C302.908 259.314 302.521 260.007 301.748 260.501C300.988 260.994 299.935 261.241 298.588 261.241C297.241 261.241 296.061 260.994 295.048 260.501V258.981C296.021 259.501 297.135 259.761 298.388 259.761C300.335 259.761 301.308 259.254 301.308 258.241C301.308 257.321 300.601 256.861 299.188 256.861H297.088V255.381H299.188C300.468 255.381 301.108 254.967 301.108 254.141C301.108 253.634 300.868 253.254 300.388 253.001C299.908 252.747 299.268 252.621 298.468 252.621C297.308 252.621 296.221 252.874 295.208 253.381V251.881C296.288 251.387 297.435 251.141 298.648 251.141C299.955 251.141 300.955 251.394 301.648 251.901C302.355 252.394 302.708 253.067 302.708 253.921C302.708 254.494 302.548 254.967 302.228 255.341C301.908 255.714 301.475 255.961 300.928 256.081C301.501 256.227 301.975 256.507 302.348 256.921C302.721 257.334 302.908 257.834 302.908 258.421ZM306.859 261.001H305.259V251.401H306.859V255.461H312.419V251.401H314.019V261.001H312.419V256.941H306.859V261.001ZM324.778 259.001C324.778 259.494 325.025 259.741 325.518 259.741C325.731 259.741 325.978 259.694 326.258 259.601V260.901C325.858 261.047 325.458 261.121 325.058 261.121C324.138 261.121 323.551 260.734 323.298 259.961C322.271 260.814 321.025 261.241 319.558 261.241C318.625 261.241 317.825 260.994 317.158 260.501C316.505 259.994 316.178 259.267 316.178 258.321C316.178 257.187 316.598 256.367 317.438 255.861C318.291 255.341 319.318 255.081 320.518 255.081C321.398 255.081 322.285 255.181 323.178 255.381V255.041C323.178 254.307 322.938 253.727 322.458 253.301C321.978 252.861 321.305 252.641 320.438 252.641C319.225 252.641 318.058 252.881 316.938 253.361V251.801C318.191 251.374 319.411 251.161 320.598 251.161C321.905 251.161 322.925 251.514 323.658 252.221C324.405 252.914 324.778 253.921 324.778 255.241V259.001ZM317.818 258.241C317.818 258.774 318.018 259.181 318.418 259.461C318.831 259.727 319.325 259.861 319.898 259.861C321.218 259.861 322.311 259.394 323.178 258.461V256.701C322.271 256.514 321.458 256.421 320.738 256.421C319.925 256.421 319.231 256.567 318.658 256.861C318.098 257.141 317.818 257.601 317.818 258.241ZM329.574 261.001H327.974V251.401H329.574V255.461H335.134V251.401H336.734V261.001H335.134V256.941H329.574V261.001ZM341.053 261.001H339.693V251.401H341.293V258.421L347.173 251.401H348.533V261.001H346.933V253.981L341.053 261.001ZM352.45 261.001H350.57L353.35 257.481C352.616 257.267 352.05 256.894 351.65 256.361C351.25 255.827 351.05 255.214 351.05 254.521C351.05 253.641 351.37 252.901 352.01 252.301C352.65 251.701 353.53 251.401 354.65 251.401H359.37V261.001H357.77V257.641H355.07L352.45 261.001ZM353.21 253.281C352.836 253.574 352.65 253.987 352.65 254.521C352.65 255.054 352.836 255.467 353.21 255.761C353.596 256.054 354.123 256.201 354.79 256.201H357.77V252.841H354.79C354.123 252.841 353.596 252.987 353.21 253.281ZM363.85 261.001H362.33V251.401H364.07L367.57 256.721L371.07 251.401H372.81V261.001H371.29V253.761L368.17 258.501H366.97L363.85 253.761V261.001ZM377.127 261.001H375.767V251.401H377.367V258.421L383.247 251.401H384.607V261.001H383.007V253.981L377.127 261.001ZM388.984 259.421C389.184 259.594 389.284 259.841 389.284 260.161C389.284 260.481 389.184 260.734 388.984 260.921C388.784 261.094 388.537 261.181 388.244 261.181C387.951 261.181 387.697 261.094 387.484 260.921C387.284 260.734 387.184 260.481 387.184 260.161C387.184 259.841 387.284 259.594 387.484 259.421C387.697 259.247 387.951 259.161 388.244 259.161C388.537 259.161 388.784 259.247 388.984 259.421ZM61.7105 279.701C62.8839 279.074 64.2105 278.761 65.6905 278.761C66.6105 278.761 67.4972 278.914 68.3505 279.221C69.2172 279.527 69.9972 279.974 70.6905 280.561C71.3972 281.147 71.9572 281.921 72.3705 282.881C72.7972 283.841 73.0105 284.927 73.0105 286.141C73.0105 287.327 72.7972 288.387 72.3705 289.321C71.9572 290.254 71.3905 291.001 70.6705 291.561C69.9639 292.107 69.1839 292.527 68.3305 292.821C67.4772 293.101 66.5839 293.241 65.6505 293.241C64.2105 293.241 62.8972 292.927 61.7105 292.301V290.561C62.7239 291.281 63.9572 291.641 65.4105 291.641C66.1439 291.641 66.8372 291.554 67.4905 291.381C68.1439 291.194 68.7505 290.914 69.3105 290.541C69.8705 290.167 70.3305 289.661 70.6905 289.021C71.0505 288.381 71.2572 287.641 71.3105 286.801H64.0105V285.201H71.2905C71.1439 283.614 70.5105 282.414 69.3905 281.601C68.2705 280.774 66.9572 280.361 65.4505 280.361C63.9572 280.361 62.7105 280.701 61.7105 281.381V279.701ZM79.396 293.001H77.796V284.881H74.256V283.401H82.916V284.881H79.396V293.001ZM85.2795 291.901C84.2661 290.994 83.7595 289.761 83.7595 288.201C83.7595 286.641 84.2661 285.414 85.2795 284.521C86.2928 283.614 87.4928 283.161 88.8795 283.161C90.2795 283.161 91.4795 283.614 92.4795 284.521C93.4928 285.414 93.9995 286.641 93.9995 288.201C93.9995 289.761 93.4928 290.994 92.4795 291.901C91.4795 292.794 90.2795 293.241 88.8795 293.241C87.4928 293.241 86.2928 292.794 85.2795 291.901ZM91.3995 290.781C92.0661 290.141 92.3995 289.281 92.3995 288.201C92.3995 287.121 92.0661 286.267 91.3995 285.641C90.7328 285.001 89.8928 284.681 88.8795 284.681C87.8661 284.681 87.0261 285.001 86.3595 285.641C85.6928 286.267 85.3595 287.121 85.3595 288.201C85.3595 289.281 85.6928 290.141 86.3595 290.781C87.0261 291.407 87.8661 291.721 88.8795 291.721C89.8928 291.721 90.7328 291.407 91.3995 290.781ZM102.875 293.001H101.275V283.401H102.875V287.461H108.435V283.401H110.035V293.001H108.435V288.941H102.875V293.001ZM112.334 288.201C112.334 286.627 112.814 285.394 113.774 284.501C114.747 283.607 115.86 283.161 117.114 283.161C118.287 283.161 119.254 283.454 120.014 284.041C120.787 284.627 121.294 285.354 121.534 286.221C121.774 287.074 121.787 287.967 121.574 288.901H113.934C114.027 289.847 114.447 290.561 115.194 291.041C115.94 291.521 116.84 291.761 117.894 291.761C119.067 291.761 120.12 291.501 121.054 290.981V292.541C120.16 293.007 119.027 293.241 117.654 293.241C116.134 293.241 114.867 292.807 113.854 291.941C112.84 291.074 112.334 289.827 112.334 288.201ZM120.154 287.501C120.194 287.221 120.174 286.927 120.094 286.621C120.014 286.314 119.867 286.007 119.654 285.701C119.454 285.394 119.14 285.141 118.714 284.941C118.287 284.741 117.787 284.641 117.214 284.641C116.347 284.641 115.594 284.894 114.954 285.401C114.327 285.907 113.987 286.607 113.934 287.501H120.154ZM127.312 284.881C127.245 285.934 127.165 286.854 127.072 287.641C126.978 288.427 126.845 289.187 126.672 289.921C126.498 290.641 126.285 291.227 126.032 291.681C125.792 292.134 125.485 292.494 125.112 292.761C124.738 293.027 124.312 293.161 123.832 293.161C123.445 293.161 123.058 293.087 122.672 292.941V291.681C122.885 291.761 123.098 291.801 123.312 291.801C124.112 291.801 124.692 291.101 125.052 289.701C125.425 288.287 125.658 286.187 125.752 283.401H132.812V293.001H131.212V284.881H127.312ZM140.327 293.001H135.767V283.401H137.367V286.761H140.327C141.474 286.761 142.38 287.054 143.047 287.641C143.714 288.227 144.047 288.974 144.047 289.881C144.047 290.787 143.714 291.534 143.047 292.121C142.38 292.707 141.474 293.001 140.327 293.001ZM137.367 288.201V291.561H140.127C140.847 291.561 141.407 291.421 141.807 291.141C142.22 290.861 142.427 290.441 142.427 289.881C142.427 289.321 142.22 288.901 141.807 288.621C141.407 288.341 140.847 288.201 140.127 288.201H137.367ZM153.279 290.421C153.279 291.314 152.892 292.007 152.119 292.501C151.359 292.994 150.306 293.241 148.959 293.241C147.612 293.241 146.432 292.994 145.419 292.501V290.981C146.392 291.501 147.506 291.761 148.759 291.761C150.706 291.761 151.679 291.254 151.679 290.241C151.679 289.321 150.972 288.861 149.559 288.861H147.459V287.381H149.559C150.839 287.381 151.479 286.967 151.479 286.141C151.479 285.634 151.239 285.254 150.759 285.001C150.279 284.747 149.639 284.621 148.839 284.621C147.679 284.621 146.592 284.874 145.579 285.381V283.881C146.659 283.387 147.806 283.141 149.019 283.141C150.326 283.141 151.326 283.394 152.019 283.901C152.726 284.394 153.079 285.067 153.079 285.921C153.079 286.494 152.919 286.967 152.599 287.341C152.279 287.714 151.846 287.961 151.299 288.081C151.872 288.227 152.346 288.507 152.719 288.921C153.092 289.334 153.279 289.834 153.279 290.421ZM156.59 293.001H154.71L157.49 289.481C156.757 289.267 156.19 288.894 155.79 288.361C155.39 287.827 155.19 287.214 155.19 286.521C155.19 285.641 155.51 284.901 156.15 284.301C156.79 283.701 157.67 283.401 158.79 283.401H163.51V293.001H161.91V289.641H159.21L156.59 293.001ZM157.35 285.281C156.977 285.574 156.79 285.987 156.79 286.521C156.79 287.054 156.977 287.467 157.35 287.761C157.737 288.054 158.264 288.201 158.93 288.201H161.91V284.841H158.93C158.264 284.841 157.737 284.987 157.35 285.281ZM173.051 293.001H171.451V283.401H180.211V293.001H178.611V284.881H173.051V293.001ZM184.609 285.001C185.689 283.774 186.983 283.161 188.489 283.161C189.863 283.161 191.003 283.641 191.909 284.601C192.829 285.561 193.289 286.761 193.289 288.201C193.289 289.641 192.829 290.841 191.909 291.801C191.003 292.761 189.863 293.241 188.489 293.241C186.969 293.241 185.729 292.681 184.769 291.561V297.401H183.169V283.401H184.609V285.001ZM190.709 290.781C191.363 290.127 191.689 289.267 191.689 288.201C191.689 287.134 191.363 286.274 190.709 285.621C190.069 284.967 189.269 284.641 188.309 284.641C187.496 284.641 186.776 284.867 186.149 285.321C185.523 285.774 185.063 286.334 184.769 287.001V289.401C185.063 290.067 185.523 290.627 186.149 291.081C186.776 291.534 187.496 291.761 188.309 291.761C189.269 291.761 190.069 291.434 190.709 290.781ZM196.451 291.901C195.438 290.994 194.931 289.761 194.931 288.201C194.931 286.641 195.438 285.414 196.451 284.521C197.465 283.614 198.665 283.161 200.051 283.161C201.451 283.161 202.651 283.614 203.651 284.521C204.665 285.414 205.171 286.641 205.171 288.201C205.171 289.761 204.665 290.994 203.651 291.901C202.651 292.794 201.451 293.241 200.051 293.241C198.665 293.241 197.465 292.794 196.451 291.901ZM202.571 290.781C203.238 290.141 203.571 289.281 203.571 288.201C203.571 287.121 203.238 286.267 202.571 285.641C201.905 285.001 201.065 284.681 200.051 284.681C199.038 284.681 198.198 285.001 197.531 285.641C196.865 286.267 196.531 287.121 196.531 288.201C196.531 289.281 196.865 290.141 197.531 290.781C198.198 291.407 199.038 291.721 200.051 291.721C201.065 291.721 201.905 291.407 202.571 290.781ZM209.066 293.001H207.466V283.401H216.226V293.001H214.626V284.881H209.066V293.001ZM223.225 291.181L226.465 283.401H228.165L223.445 294.441C222.525 296.574 221.318 297.641 219.825 297.641C219.465 297.641 219.118 297.594 218.785 297.501V296.121C219.065 296.201 219.345 296.241 219.625 296.241C220.652 296.241 221.478 295.461 222.105 293.901L222.465 293.021L217.905 283.401H219.605L223.225 291.181ZM228.935 288.241C228.935 287.401 229.089 286.647 229.395 285.981C229.702 285.314 230.102 284.781 230.595 284.381C231.102 283.981 231.655 283.681 232.255 283.481C232.869 283.267 233.495 283.161 234.135 283.161C235.322 283.161 236.309 283.421 237.095 283.941V285.501C236.362 284.927 235.442 284.641 234.335 284.641C233.295 284.641 232.402 284.941 231.655 285.541C230.909 286.141 230.535 287.027 230.535 288.201C230.535 289.361 230.902 290.247 231.635 290.861C232.382 291.461 233.269 291.761 234.295 291.761C235.362 291.761 236.329 291.501 237.195 290.981V292.581C236.289 293.021 235.249 293.241 234.075 293.241C232.689 293.241 231.482 292.807 230.455 291.941C229.442 291.074 228.935 289.841 228.935 288.241ZM243.537 293.001H241.937V284.881H238.397V283.401H247.057V284.881H243.537V293.001ZM250.233 293.001H248.873V283.401H250.473V290.421L256.353 283.401H257.713V293.001H256.113V285.981L250.233 293.001ZM264.669 293.001H263.069V284.881H259.529V283.401H268.189V284.881H264.669V293.001ZM274.565 293.001H270.005V283.401H271.605V286.761H274.565C275.712 286.761 276.619 287.054 277.285 287.641C277.952 288.227 278.285 288.974 278.285 289.881C278.285 290.787 277.952 291.534 277.285 292.121C276.619 292.707 275.712 293.001 274.565 293.001ZM271.605 288.201V291.561H274.365C275.085 291.561 275.645 291.421 276.045 291.141C276.459 290.861 276.665 290.441 276.665 289.881C276.665 289.321 276.459 288.901 276.045 288.621C275.645 288.341 275.085 288.201 274.365 288.201H271.605ZM281.857 288.941H280.457L280.317 279.001H281.997L281.857 288.941ZM281.877 291.461C282.077 291.634 282.177 291.881 282.177 292.201C282.177 292.521 282.077 292.767 281.877 292.941C281.677 293.114 281.437 293.201 281.157 293.201C280.877 293.201 280.637 293.114 280.437 292.941C280.237 292.767 280.137 292.521 280.137 292.201C280.137 291.881 280.237 291.634 280.437 291.461C280.637 291.287 280.877 291.201 281.157 291.201C281.437 291.201 281.677 291.287 281.877 291.461Z" fill="#686868"/>
<path d="M455.503 0.000488281L466.673 54.8119L510.462 20.0037L483.786 69.1714L539.704 70.6536L487.665 91.1715L529.549 128.25L476.496 110.518L484.746 165.844L455.503 118.159L426.261 165.844L434.511 110.518L381.458 128.25L423.341 91.1715L371.302 70.6536L427.221 69.1714L400.545 20.0037L444.334 54.8119L455.503 0.000488281Z" fill="#CCFF00"/>
<defs>
<filter id="filter0_b_2_17" x="-3.99512" y="74.0007" width="478" height="281" filterUnits="userSpaceOnUse" color-interpolation-filters="sRGB">
<feFlood flood-opacity="0" result="BackgroundImageFix"/>
<feGaussianBlur in="BackgroundImage" stdDeviation="2"/>
<feComposite in2="SourceAlpha" operator="in" result="effect1_backgroundBlur_2_17"/>
<feBlend mode="normal" in="SourceGraphic" in2="effect1_backgroundBlur_2_17" result="shape"/>
</filter>
</defs>
</svg>
