<svg width="116" height="48" viewBox="0 0 116 48" fill="none" xmlns="http://www.w3.org/2000/svg">
<rect x="0.00341797" y="1.99951" width="115" height="44" rx="22" fill="#4A40EE"/>
<g filter="url(#filter0_d_2_189)">
<circle cx="25.0034" cy="23.9995" r="4" fill="#FF0000"/>
</g>
<path d="M38.8854 24.9895C38.6708 24.3922 38.5634 23.7622 38.5634 23.0995C38.5634 22.4368 38.6708 21.8068 38.8854 21.2095C39.1094 20.6122 39.4268 20.0755 39.8374 19.5995C40.2481 19.1142 40.7894 18.7315 41.4614 18.4515C42.1334 18.1622 42.8848 18.0175 43.7154 18.0175C44.5461 18.0175 45.2928 18.1622 45.9554 18.4515C46.6274 18.7315 47.1688 19.1142 47.5794 19.5995C47.9994 20.0755 48.3168 20.6122 48.5314 21.2095C48.7554 21.8068 48.8674 22.4368 48.8674 23.0995C48.8674 23.7622 48.7554 24.3922 48.5314 24.9895C48.3168 25.5868 47.9994 26.1282 47.5794 26.6135C47.1688 27.0895 46.6274 27.4722 45.9554 27.7615C45.2928 28.0415 44.5461 28.1815 43.7154 28.1815C42.8848 28.1815 42.1334 28.0415 41.4614 27.7615C40.7894 27.4722 40.2481 27.0895 39.8374 26.6135C39.4268 26.1282 39.1094 25.5868 38.8854 24.9895ZM46.3194 25.6475C46.9354 24.9568 47.2434 24.1075 47.2434 23.0995C47.2434 22.0915 46.9354 21.2422 46.3194 20.5515C45.7128 19.8608 44.8448 19.5155 43.7154 19.5155C42.5954 19.5155 41.7274 19.8608 41.1114 20.5515C40.4954 21.2422 40.1874 22.0915 40.1874 23.0995C40.1874 24.1075 40.4954 24.9568 41.1114 25.6475C41.7274 26.3382 42.5954 26.6835 43.7154 26.6835C44.8448 26.6835 45.7128 26.3382 46.3194 25.6475ZM51.8007 27.9995H50.3027V21.2795H51.8007V23.9815H55.1607V21.2795H56.6587V27.9995H55.1607V25.2975H51.8007V27.9995ZM61.2072 22.5535C61.1512 23.4308 61.0765 24.1822 60.9832 24.8075C60.8899 25.4328 60.7499 26.0115 60.5632 26.5435C60.3765 27.0662 60.1292 27.4628 59.8212 27.7335C59.5225 27.9948 59.1539 28.1255 58.7152 28.1255C58.4259 28.1255 58.1179 28.0648 57.7912 27.9435V26.7675C57.9499 26.8235 58.0945 26.8515 58.2252 26.8515C58.7572 26.8515 59.1305 26.3895 59.3452 25.4655C59.5692 24.5322 59.7185 23.1368 59.7932 21.2795H64.9732V27.9995H63.4752V22.5535H61.2072ZM72.5717 26.4455C72.5717 26.7722 72.735 26.9355 73.0617 26.9355C73.1737 26.9355 73.323 26.9075 73.5097 26.8515V27.9295C73.2297 28.0415 72.9124 28.0975 72.5577 28.0975C71.8857 28.0975 71.4377 27.8362 71.2137 27.3135C70.495 27.8922 69.6504 28.1815 68.6797 28.1815C68.0264 28.1815 67.471 28.0042 67.0137 27.6495C66.5564 27.2855 66.3277 26.7768 66.3277 26.1235C66.3277 25.3395 66.6217 24.7702 67.2097 24.4155C67.7977 24.0515 68.5024 23.8695 69.3237 23.8695C69.865 23.8695 70.4484 23.9348 71.0737 24.0655V23.8275C71.0737 23.3982 70.9197 23.0528 70.6117 22.7915C70.3037 22.5302 69.8697 22.3995 69.3097 22.3995C68.479 22.3995 67.6717 22.5722 66.8877 22.9175V21.5455C67.765 21.2468 68.6237 21.0975 69.4637 21.0975C70.4437 21.0975 71.2044 21.3402 71.7457 21.8255C72.2964 22.3108 72.5717 23.0482 72.5717 24.0375V26.4455ZM69.6177 24.9195C69.123 24.9195 68.7077 25.0082 68.3717 25.1855C68.0357 25.3628 67.8677 25.6428 67.8677 26.0255C67.8677 26.3428 67.989 26.5902 68.2317 26.7675C68.4744 26.9355 68.773 27.0195 69.1277 27.0195C69.893 27.0195 70.5417 26.7535 71.0737 26.2215V25.0875C70.5324 24.9755 70.047 24.9195 69.6177 24.9195ZM79.8747 19.7675C79.3147 20.1502 78.6333 20.3415 77.8307 20.3415C77.028 20.3415 76.3467 20.1502 75.7867 19.7675V18.5495C76.412 18.9415 77.0933 19.1375 77.8307 19.1375C78.568 19.1375 79.2493 18.9415 79.8747 18.5495V19.7675ZM75.9267 27.9995H74.6387V21.2795H76.1367V25.6755L79.7347 21.2795H81.0227V27.9995H79.5247V23.6035L75.9267 27.9995ZM84.3945 27.9995H82.8965V21.2795H84.3945V23.9815H87.7545V21.2795H89.2525V27.9995H87.7545V25.2975H84.3945V27.9995Z" fill="white"/>
<defs>
<filter id="filter0_d_2_189" x="1.00342" y="-0.000488281" width="48" height="48" filterUnits="userSpaceOnUse" color-interpolation-filters="sRGB">
<feFlood flood-opacity="0" result="BackgroundImageFix"/>
<feColorMatrix in="SourceAlpha" type="matrix" values="0 0 0 0 0 0 0 0 0 0 0 0 0 0 0 0 0 0 127 0" result="hardAlpha"/>
<feOffset/>
<feGaussianBlur stdDeviation="10"/>
<feColorMatrix type="matrix" values="0 0 0 0 1 0 0 0 0 0 0 0 0 0 0 0 0 0 0.5 0"/>
<feBlend mode="normal" in2="BackgroundImageFix" result="effect1_dropShadow_2_189"/>
<feBlend mode="normal" in="SourceGraphic" in2="effect1_dropShadow_2_189" result="shape"/>
</filter>
</defs>
</svg>
